<svg xmlns:xlink="http://www.w3.org/1999/xlink" width="75ex" height="13.843ex" style="font-size: 15px; vertical-align: -6.838ex; max-width: 450;" viewBox="0 -3015.9 32291.5 5960" role="img" focusable="false" xmlns="http://www.w3.org/2000/svg">
<defs>
<path stroke-width="1" id="E1-MJMAIN-4B" d="M128 622Q121 629 117 631T101 634T58 637H25V683H36Q57 680 180 680Q315 680 324 683H335V637H313Q235 637 233 620Q232 618 232 462L233 307L379 449Q425 494 479 546Q518 584 524 591T531 607V608Q531 630 503 636Q501 636 498 636T493 637H489V683H499Q517 680 630 680Q704 680 716 683H722V637H708Q633 633 589 597Q584 592 495 506T406 419T515 254T631 80Q644 60 662 54T715 46H736V0H728Q719 3 615 3Q493 3 472 0H461V46H469Q515 46 515 72Q515 78 512 84L336 351Q332 348 278 296L232 251V156Q232 62 235 58Q243 47 302 46H335V0H324Q303 3 180 3Q45 3 36 0H25V46H58Q100 47 109 49T128 61V622Z"></path>
<path stroke-width="1" id="E1-MJMAIN-4C" d="M128 622Q121 629 117 631T101 634T58 637H25V683H36Q48 680 182 680Q324 680 348 683H360V637H333Q273 637 258 635T233 622L232 342V129Q232 57 237 52Q243 47 313 47Q384 47 410 53Q470 70 498 110T536 221Q536 226 537 238T540 261T542 272T562 273H582V268Q580 265 568 137T554 5V0H25V46H58Q100 47 109 49T128 61V622Z"></path>
<path stroke-width="1" id="E1-MJMAIN-28" d="M94 250Q94 319 104 381T127 488T164 576T202 643T244 695T277 729T302 750H315H319Q333 750 333 741Q333 738 316 720T275 667T226 581T184 443T167 250T184 58T225 -81T274 -167T316 -220T333 -241Q333 -250 318 -250H315H302L274 -226Q180 -141 137 -14T94 250Z"></path>
<path stroke-width="1" id="E1-MJMATHI-71" d="M33 157Q33 258 109 349T280 441Q340 441 372 389Q373 390 377 395T388 406T404 418Q438 442 450 442Q454 442 457 439T460 434Q460 425 391 149Q320 -135 320 -139Q320 -147 365 -148H390Q396 -156 396 -157T393 -175Q389 -188 383 -194H370Q339 -192 262 -192Q234 -192 211 -192T174 -192T157 -193Q143 -193 143 -185Q143 -182 145 -170Q149 -154 152 -151T172 -148Q220 -148 230 -141Q238 -136 258 -53T279 32Q279 33 272 29Q224 -10 172 -10Q117 -10 75 30T33 157ZM352 326Q329 405 277 405Q242 405 210 374T160 293Q131 214 119 129Q119 126 119 118T118 106Q118 61 136 44T179 26Q233 26 290 98L298 109L352 326Z"></path>
<path stroke-width="1" id="E1-MJMATHBI-3B8" d="M213 -8Q130 -8 85 50T40 200V207Q40 303 83 428Q122 535 189 608Q279 702 381 702Q410 702 437 693T492 661T537 593T554 486Q554 428 539 362T495 230T425 111T330 25T213 -8ZM433 562Q433 600 419 625T377 651Q363 651 348 644T311 619T268 557T229 453Q225 441 217 411T208 378H401Q433 500 433 562ZM161 140Q161 43 217 43Q249 43 280 74Q310 103 332 150T378 287Q385 313 385 315Q385 316 289 316H192Q191 308 183 275T169 205T161 140Z"></path>
<path stroke-width="1" id="E1-MJMATHBI-3C9" d="M532 367Q532 399 559 426T618 453Q645 453 668 430T691 357Q691 319 677 261T649 171Q640 149 626 125T586 68T521 14T438 -7Q401 -7 372 7T333 30T311 57Q246 -8 165 -8Q119 -8 82 19T30 102Q24 126 24 163V178Q24 210 37 255Q61 346 118 424Q141 451 161 451Q174 451 184 443T194 419Q194 402 179 387Q91 273 91 206Q91 159 122 138T189 117T281 145V173Q283 223 294 253Q304 276 323 289T364 303Q386 303 400 287T415 250Q415 219 385 157L378 144Q378 142 388 136T419 124T462 117Q522 117 566 165T610 255Q610 288 561 320Q532 337 532 367Z"></path>
<path stroke-width="1" id="E1-MJMAIN-29" d="M60 749L64 750Q69 750 74 750H86L114 726Q208 641 251 514T294 250Q294 182 284 119T261 12T224 -76T186 -143T145 -194T113 -227T90 -246Q87 -249 86 -250H74Q66 -250 63 -250T58 -247T55 -238Q56 -237 66 -225Q221 -64 221 250T66 725Q56 737 55 738Q55 746 60 749Z"></path>
<path stroke-width="1" id="E1-MJMAIN-2225" d="M133 736Q138 750 153 750Q164 750 170 739Q172 735 172 250T170 -239Q164 -250 152 -250Q144 -250 138 -244L137 -243Q133 -241 133 -179T132 250Q132 731 133 736ZM329 739Q334 750 346 750Q353 750 361 744L362 743Q366 741 366 679T367 250T367 -178T362 -243L361 -244Q355 -250 347 -250Q335 -250 329 -239Q327 -235 327 250T329 739Z"></path>
<path stroke-width="1" id="E1-MJMATHI-70" d="M23 287Q24 290 25 295T30 317T40 348T55 381T75 411T101 433T134 442Q209 442 230 378L240 387Q302 442 358 442Q423 442 460 395T497 281Q497 173 421 82T249 -10Q227 -10 210 -4Q199 1 187 11T168 28L161 36Q160 35 139 -51T118 -138Q118 -144 126 -145T163 -148H188Q194 -155 194 -157T191 -175Q188 -187 185 -190T172 -194Q170 -194 161 -194T127 -193T65 -192Q-5 -192 -24 -194H-32Q-39 -187 -39 -183Q-37 -156 -26 -148H-6Q28 -147 33 -136Q36 -130 94 103T155 350Q156 355 156 364Q156 405 131 405Q109 405 94 377T71 316T59 280Q57 278 43 278H29Q23 284 23 287ZM178 102Q200 26 252 26Q282 26 310 49T356 107Q374 141 392 215T411 325V331Q411 405 350 405Q339 405 328 402T306 393T286 380T269 365T254 350T243 336T235 326L232 322Q232 321 229 308T218 264T204 212Q178 106 178 102Z"></path>
<path stroke-width="1" id="E1-MJMAIN-2223" d="M139 -249H137Q125 -249 119 -235V251L120 737Q130 750 139 750Q152 750 159 735V-235Q151 -249 141 -249H139Z"></path>
<path stroke-width="1" id="E1-MJCAL-44" d="M37 475Q19 475 19 487Q19 536 103 604T327 682H356Q386 683 408 683H419Q475 683 506 681T582 668T667 633Q766 571 766 450Q766 365 723 287T611 152T455 57T279 6Q248 1 160 0Q148 0 131 0T108 -1Q72 -1 72 11Q72 24 90 40T133 64L144 68L152 88Q247 328 272 587Q275 613 272 613Q272 613 269 613Q225 610 195 602T149 579T129 556T119 532Q118 530 116 525T113 518Q102 502 80 490T37 475ZM665 407Q665 596 412 613Q403 614 383 614Q370 614 370 612Q370 598 363 542T323 357T242 103L228 69H265Q391 73 481 119Q536 148 575 188T633 268T658 338T665 392V407Z"></path>
<path stroke-width="1" id="E1-MJMAIN-3D" d="M56 347Q56 360 70 367H707Q722 359 722 347Q722 336 708 328L390 327H72Q56 332 56 347ZM56 153Q56 168 72 173H708Q722 163 722 153Q722 140 707 133H70Q56 140 56 153Z"></path>
<path stroke-width="1" id="E1-MJAMS-45" d="M12 666Q12 675 24 683H582Q590 680 593 672V588Q593 514 591 502T575 490Q567 490 563 495T555 517Q552 556 517 590Q486 623 445 634T340 648H282Q266 636 264 620T260 492V370H277Q329 375 358 391T404 439Q420 480 420 506Q420 529 436 529Q445 529 451 521Q455 517 455 361Q455 333 455 298T456 253Q456 217 453 207T437 197Q420 196 420 217Q420 240 406 270Q377 328 284 335H260V201Q261 174 261 134Q262 73 264 61T278 38Q281 36 282 35H331Q400 35 449 50Q571 93 602 179Q605 203 622 203Q629 203 634 197T640 183Q638 181 624 95T604 3L600 -1H24Q12 5 12 16Q12 35 51 35Q92 38 97 52Q102 60 102 341T97 632Q91 645 51 648Q12 648 12 666ZM137 341Q137 131 136 89T130 37Q129 36 129 35H235Q233 41 231 48L226 61V623L231 635L235 648H129Q132 641 133 638T135 603T137 517T137 341ZM557 603V648H504Q504 646 515 639Q527 634 542 619L557 603ZM420 317V397L406 383Q394 370 380 363L366 355Q373 350 382 346Q400 333 409 328L420 317ZM582 61L586 88Q585 88 582 83Q557 61 526 46L511 37L542 35H577Q577 36 578 39T580 49T582 61Z"></path>
<path stroke-width="1" id="E1-MJMAIN-5B" d="M118 -250V750H255V710H158V-210H255V-250H118Z"></path>
<path stroke-width="1" id="E1-MJMAIN-6C" d="M42 46H56Q95 46 103 60V68Q103 77 103 91T103 124T104 167T104 217T104 272T104 329Q104 366 104 407T104 482T104 542T103 586T103 603Q100 622 89 628T44 637H26V660Q26 683 28 683L38 684Q48 685 67 686T104 688Q121 689 141 690T171 693T182 694H185V379Q185 62 186 60Q190 52 198 49Q219 46 247 46H263V0H255L232 1Q209 2 183 2T145 3T107 3T57 1L34 0H26V46H42Z"></path>
<path stroke-width="1" id="E1-MJMAIN-6F" d="M28 214Q28 309 93 378T250 448Q340 448 405 380T471 215Q471 120 407 55T250 -10Q153 -10 91 57T28 214ZM250 30Q372 30 372 193V225V250Q372 272 371 288T364 326T348 362T317 390T268 410Q263 411 252 411Q222 411 195 399Q152 377 139 338T126 246V226Q126 130 145 91Q177 30 250 30Z"></path>
<path stroke-width="1" id="E1-MJMAIN-67" d="M329 409Q373 453 429 453Q459 453 472 434T485 396Q485 382 476 371T449 360Q416 360 412 390Q410 404 415 411Q415 412 416 414V415Q388 412 363 393Q355 388 355 386Q355 385 359 381T368 369T379 351T388 325T392 292Q392 230 343 187T222 143Q172 143 123 171Q112 153 112 133Q112 98 138 81Q147 75 155 75T227 73Q311 72 335 67Q396 58 431 26Q470 -13 470 -72Q470 -139 392 -175Q332 -206 250 -206Q167 -206 107 -175Q29 -140 29 -75Q29 -39 50 -15T92 18L103 24Q67 55 67 108Q67 155 96 193Q52 237 52 292Q52 355 102 398T223 442Q274 442 318 416L329 409ZM299 343Q294 371 273 387T221 404Q192 404 171 388T145 343Q142 326 142 292Q142 248 149 227T179 192Q196 182 222 182Q244 182 260 189T283 207T294 227T299 242Q302 258 302 292T299 343ZM403 -75Q403 -50 389 -34T348 -11T299 -2T245 0H218Q151 0 138 -6Q118 -15 107 -34T95 -74Q95 -84 101 -97T122 -127T170 -155T250 -167Q319 -167 361 -139T403 -75Z"></path>
<path stroke-width="1" id="E1-MJMAIN-2212" d="M84 237T84 250T98 270H679Q694 262 694 250T679 230H98Q84 237 84 250Z"></path>
<path stroke-width="1" id="E1-MJMAIN-5D" d="M22 710V750H159V-250H22V-210H119V710H22Z"></path>
<path stroke-width="1" id="E1-MJSZ3-5B" d="M247 -949V1450H516V1388H309V-887H516V-949H247Z"></path>
<path stroke-width="1" id="E1-MJSZ3-5D" d="M11 1388V1450H280V-949H11V-887H218V1388H11Z"></path>
<path stroke-width="1" id="E1-MJMAIN-2B" d="M56 237T56 250T70 270H369V420L370 570Q380 583 389 583Q402 583 409 568V270H707Q722 262 722 250T707 230H409V-68Q401 -82 391 -82H389H387Q375 -82 369 -68V230H70Q56 237 56 250Z"></path>
<path stroke-width="1" id="E1-MJCAL-46" d="M199 579Q181 579 181 590Q181 598 188 611T212 639T260 666T335 682Q336 682 349 682T383 682T431 682T493 683T561 683Q776 682 784 681Q826 673 829 647Q829 620 797 600T744 580Q728 580 728 595Q729 607 713 610Q698 613 598 614H500L499 610Q499 598 467 486T428 367Q428 365 551 365H674Q683 360 684 355Q687 346 677 329Q666 312 642 299T598 285Q586 285 582 296H402L394 277Q386 258 373 229T346 167T315 102T286 51Q265 22 225 -5T133 -32Q108 -32 87 -25T54 -7T33 15T21 35T18 47Q18 60 44 80T98 103Q108 103 111 101T119 88Q130 66 150 54T179 39T195 37Q199 37 203 43Q217 67 245 125T318 300T391 532Q393 543 398 564T406 598T409 613T339 614H269Q229 579 199 579Z"></path>
<path stroke-width="1" id="E1-MJMATHI-3B8" d="M35 200Q35 302 74 415T180 610T319 704Q320 704 327 704T339 705Q393 701 423 656Q462 596 462 495Q462 380 417 261T302 66T168 -10H161Q125 -10 99 10T60 63T41 130T35 200ZM383 566Q383 668 330 668Q294 668 260 623T204 521T170 421T157 371Q206 370 254 370L351 371Q352 372 359 404T375 484T383 566ZM113 132Q113 26 166 26Q181 26 198 36T239 74T287 161T335 307L340 324H145Q145 321 136 286T120 208T113 132Z"></path>
</defs>
<g stroke="currentColor" fill="currentColor" stroke-width="0" transform="matrix(1 0 0 -1 0 0)">
<g transform="translate(980,0)">
<g transform="translate(167,0)">
<g transform="translate(-11,0)">
<g transform="translate(0,1369)">
 <use xlink:href="#E1-MJMAIN-4B"></use>
 <use xlink:href="#E1-MJMAIN-4C" x="778" y="0"></use>
<g transform="translate(1404,0)">
 <use xlink:href="#E1-MJMAIN-28" x="0" y="0"></use>
<g transform="translate(389,0)">
 <use xlink:href="#E1-MJMATHI-71" x="0" y="0"></use>
 <use transform="scale(0.707)" xlink:href="#E1-MJMATHBI-3B8" x="631" y="-216"></use>
 <use xlink:href="#E1-MJMAIN-28" x="944" y="0"></use>
 <use xlink:href="#E1-MJMATHBI-3C9" x="1333" y="0"></use>
 <use xlink:href="#E1-MJMAIN-29" x="2052" y="0"></use>
 <use xlink:href="#E1-MJMAIN-2225" x="2441" y="0"></use>
 <use xlink:href="#E1-MJMATHI-70" x="2942" y="0"></use>
 <use xlink:href="#E1-MJMAIN-28" x="3445" y="0"></use>
 <use xlink:href="#E1-MJMATHBI-3C9" x="3835" y="0"></use>
 <use xlink:href="#E1-MJMAIN-2223" x="4831" y="0"></use>
 <use xlink:href="#E1-MJCAL-44" x="5387" y="0"></use>
 <use xlink:href="#E1-MJMAIN-29" x="6159" y="0"></use>
</g>
 <use xlink:href="#E1-MJMAIN-29" x="6938" y="0"></use>
</g>
</g>
</g>
<g transform="translate(8721,0)">
<g transform="translate(0,1369)">
 <use xlink:href="#E1-MJMAIN-3D" x="277" y="0"></use>
<g transform="translate(1334,0)">
 <use xlink:href="#E1-MJAMS-45" x="0" y="0"></use>
 <use transform="scale(0.707)" xlink:href="#E1-MJMATHI-71" x="943" y="-213"></use>
</g>
<g transform="translate(2593,0)">
 <use xlink:href="#E1-MJSZ3-5B"></use>
<g transform="translate(528,0)">
 <use xlink:href="#E1-MJMAIN-6C"></use>
 <use xlink:href="#E1-MJMAIN-6F" x="278" y="0"></use>
 <use xlink:href="#E1-MJMAIN-67" x="779" y="0"></use>
<g transform="translate(1279,0)">
<g transform="translate(286,0)">
<rect stroke="none" width="2561" height="60" x="0" y="220"></rect>
<g transform="translate(60,770)">
 <use xlink:href="#E1-MJMATHI-71" x="0" y="0"></use>
 <use transform="scale(0.707)" xlink:href="#E1-MJMATHBI-3B8" x="631" y="-216"></use>
 <use xlink:href="#E1-MJMAIN-28" x="944" y="0"></use>
 <use xlink:href="#E1-MJMATHBI-3C9" x="1333" y="0"></use>
 <use xlink:href="#E1-MJMAIN-29" x="2052" y="0"></use>
</g>
<g transform="translate(280,-771)">
 <use xlink:href="#E1-MJMATHI-70" x="0" y="0"></use>
 <use xlink:href="#E1-MJMAIN-28" x="503" y="0"></use>
 <use xlink:href="#E1-MJMATHBI-3C9" x="893" y="0"></use>
 <use xlink:href="#E1-MJMAIN-29" x="1611" y="0"></use>
</g>
</g>
</g>
 <use xlink:href="#E1-MJMAIN-2212" x="4470" y="0"></use>
<g transform="translate(5470,0)">
 <use xlink:href="#E1-MJMAIN-6C"></use>
 <use xlink:href="#E1-MJMAIN-6F" x="278" y="0"></use>
 <use xlink:href="#E1-MJMAIN-67" x="779" y="0"></use>
</g>
 <use xlink:href="#E1-MJMATHI-70" x="6917" y="0"></use>
 <use xlink:href="#E1-MJMAIN-28" x="7420" y="0"></use>
 <use xlink:href="#E1-MJCAL-44" x="7810" y="0"></use>
 <use xlink:href="#E1-MJMAIN-2223" x="8859" y="0"></use>
 <use xlink:href="#E1-MJMATHBI-3C9" x="9415" y="0"></use>
 <use xlink:href="#E1-MJMAIN-29" x="10134" y="0"></use>
</g>
 <use xlink:href="#E1-MJSZ3-5D" x="11052" y="-1"></use>
</g>
 <use xlink:href="#E1-MJMAIN-2B" x="14396" y="0"></use>
<g transform="translate(15397,0)">
 <use xlink:href="#E1-MJMAIN-6C"></use>
 <use xlink:href="#E1-MJMAIN-6F" x="278" y="0"></use>
 <use xlink:href="#E1-MJMAIN-67" x="779" y="0"></use>
</g>
 <use xlink:href="#E1-MJMATHI-70" x="16843" y="0"></use>
 <use xlink:href="#E1-MJMAIN-28" x="17347" y="0"></use>
 <use xlink:href="#E1-MJCAL-44" x="17736" y="0"></use>
 <use xlink:href="#E1-MJMAIN-29" x="18508" y="0"></use>
</g>
<g transform="translate(0,-752)">
 <use xlink:href="#E1-MJMAIN-3D" x="277" y="0"></use>
<g transform="translate(1334,0)">
 <use xlink:href="#E1-MJMAIN-4B" x="0" y="0"></use>
 <use xlink:href="#E1-MJMAIN-4C" x="778" y="0"></use>
</g>
<g transform="translate(2904,0)">
 <use xlink:href="#E1-MJMAIN-28" x="0" y="0"></use>
<g transform="translate(389,0)">
 <use xlink:href="#E1-MJMATHI-71" x="0" y="0"></use>
 <use transform="scale(0.707)" xlink:href="#E1-MJMATHBI-3B8" x="631" y="-216"></use>
 <use xlink:href="#E1-MJMAIN-28" x="944" y="0"></use>
 <use xlink:href="#E1-MJMATHBI-3C9" x="1333" y="0"></use>
 <use xlink:href="#E1-MJMAIN-29" x="2052" y="0"></use>
 <use xlink:href="#E1-MJMAIN-2225" x="2441" y="0"></use>
 <use xlink:href="#E1-MJMATHI-70" x="2942" y="0"></use>
 <use xlink:href="#E1-MJMAIN-28" x="3445" y="0"></use>
 <use xlink:href="#E1-MJMATHBI-3C9" x="3835" y="0"></use>
 <use xlink:href="#E1-MJMAIN-29" x="4553" y="0"></use>
</g>
 <use xlink:href="#E1-MJMAIN-29" x="5332" y="0"></use>
</g>
 <use xlink:href="#E1-MJMAIN-2212" x="8849" y="0"></use>
<g transform="translate(9849,0)">
 <use xlink:href="#E1-MJAMS-45" x="0" y="0"></use>
 <use transform="scale(0.707)" xlink:href="#E1-MJMATHI-71" x="943" y="-213"></use>
</g>
 <use xlink:href="#E1-MJMAIN-5B" x="10943" y="0"></use>
<g transform="translate(11221,0)">
 <use xlink:href="#E1-MJMAIN-6C"></use>
 <use xlink:href="#E1-MJMAIN-6F" x="278" y="0"></use>
 <use xlink:href="#E1-MJMAIN-67" x="779" y="0"></use>
</g>
 <use xlink:href="#E1-MJMATHI-70" x="12667" y="0"></use>
 <use xlink:href="#E1-MJMAIN-28" x="13171" y="0"></use>
 <use xlink:href="#E1-MJCAL-44" x="13560" y="0"></use>
 <use xlink:href="#E1-MJMAIN-2223" x="14609" y="0"></use>
 <use xlink:href="#E1-MJMATHBI-3C9" x="15166" y="0"></use>
 <use xlink:href="#E1-MJMAIN-29" x="15884" y="0"></use>
 <use xlink:href="#E1-MJMAIN-5D" x="16274" y="0"></use>
 <use xlink:href="#E1-MJMAIN-2B" x="16774" y="0"></use>
<g transform="translate(17775,0)">
 <use xlink:href="#E1-MJMAIN-6C"></use>
 <use xlink:href="#E1-MJMAIN-6F" x="278" y="0"></use>
 <use xlink:href="#E1-MJMAIN-67" x="779" y="0"></use>
</g>
 <use xlink:href="#E1-MJMATHI-70" x="19221" y="0"></use>
 <use xlink:href="#E1-MJMAIN-28" x="19725" y="0"></use>
 <use xlink:href="#E1-MJCAL-44" x="20114" y="0"></use>
 <use xlink:href="#E1-MJMAIN-29" x="20886" y="0"></use>
</g>
<g transform="translate(0,-2140)">
 <use xlink:href="#E1-MJMAIN-3D" x="277" y="0"></use>
 <use xlink:href="#E1-MJMAIN-2212" x="1334" y="0"></use>
 <use xlink:href="#E1-MJCAL-46" x="2112" y="0"></use>
<g transform="translate(3108,0)">
 <use xlink:href="#E1-MJMAIN-5B" x="0" y="0"></use>
<g transform="translate(278,0)">
 <use xlink:href="#E1-MJMATHI-71" x="0" y="0"></use>
 <use transform="scale(0.707)" xlink:href="#E1-MJMATHI-3B8" x="631" y="-219"></use>
</g>
 <use xlink:href="#E1-MJMAIN-5D" x="1156" y="0"></use>
</g>
 <use xlink:href="#E1-MJMAIN-2B" x="4766" y="0"></use>
<g transform="translate(5767,0)">
 <use xlink:href="#E1-MJMAIN-6C"></use>
 <use xlink:href="#E1-MJMAIN-6F" x="278" y="0"></use>
 <use xlink:href="#E1-MJMAIN-67" x="779" y="0"></use>
</g>
 <use xlink:href="#E1-MJMATHI-70" x="7213" y="0"></use>
 <use xlink:href="#E1-MJMAIN-28" x="7716" y="0"></use>
 <use xlink:href="#E1-MJCAL-44" x="8106" y="0"></use>
 <use xlink:href="#E1-MJMAIN-29" x="8877" y="0"></use>
</g>
</g>
</g>
</g>
</g>
</svg>